# xmcd CD database file
# Copyright (C) 1998 Ti Kan
# 
# Track frame offsets:
#     150
#     16882
#     30385
#     41850
#     53430
#     62377
#     73097
#     85490
#     101925
#     121032
#     129927
#     144092
#     160132
#     172672
# 
# Disc length: 2558 seconds
# 
# Revision: 2
# Processed by: cddbd v1.4PL0 Copyright (c) Steve Scherf et al.
# Submitted via: Gronk 1.4
# 
DISCID=a709fc0e
DTITLE=Tracy Nelson - Mother Earth Presents Tracy Nelson Country
DYEAR=1900
DGENRE=country
TTITLE0=Sad Situation
TTITLE1=I Fall To Pieces
TTITLE2=Stay As Sweet As You Are
TTITLE3=Stand By Your Man
TTITLE4=Blue Blue Day
TTITLE5=That's All Right
TTITLE6=I Can't Go On Loving You
TTITLE7=You're Still My Baby
TTITLE8=Now You're Gone
TTITLE9=Why, Why, Why
TTITLE10=I'm So Lonesome I Could Cry
TTITLE11=I Wanna Be Your Mama Again
TTITLE12=Wait, Wait, Wait
TTITLE13=You Win Again
EXTD=
EXTT0=
EXTT1=
EXTT2=
EXTT3=
EXTT4=
EXTT5=
EXTT6=
EXTT7=
EXTT8=
EXTT9=
EXTT10=
EXTT11=
EXTT12=
EXTT13=
PLAYORDER=
